Simulation
nRows=38
nColumns=15
endheader
time  TH_x TH_y TH_z SC_y  SC_z  SC_x  AC_y  AC_z  AC_x  GH_y  GH_z  GH_yy  EL_x  PS_y
1.549999999999999  0.000000  0.000000  0.000000  -56.33608169357226  11.964096640177965  50.954102898005885  53.915908558484276  -7.584545061891135  -4.674480997404268  34.20431167556241  49.20492883736576  -42.637980573891646  18.259280572990704  120.000000
1.5809999999999989  0.000000  0.000000  0.000000  -55.584468294620386  11.8300204939336  50.39077757860878  53.42146317467193  -7.921115378006513  -5.697403418029191  34.97115710378822  48.45585991570298  -43.21963155595518  18.431807161553074  120.000000
1.611999999999999  0.000000  0.000000  0.000000  -54.77156908871933  11.665522994226112  49.63830973983285  52.8969923668682  -8.166718433992184  -6.709263938136514  35.82103295940161  47.54110777262311  -43.82988906700823  18.63953428834686  120.000000
1.642999999999999  0.000000  0.000000  0.000000  -53.91541734708199  11.46223410045746  48.707351298798294  52.36581696506514  -8.304725087012281  -7.672640477287225  36.72922684692101  46.449585813573215  -44.44230268292389  18.87570807317005  120.000000
1.6739999999999988  0.000000  0.000000  0.000000  -53.036837562431614  11.217312994089117  47.61858269535554  51.85267388358562  -8.348094218677158  -8.559093692620094  37.65807239906989  45.18565631750192  -45.01846848875235  19.130832425126194  120.000000
1.7049999999999987  0.000000  0.000000  0.000000  -52.158728490833205  10.935720607632653  46.399699113037414  51.378988448677  -8.348094260186702  -9.351623003174012  38.54770300755468  43.77606910215852  -45.50797354944077  19.39432368781946  120.000000
1.7359999999999989  0.000000  0.000000  0.000000  -51.30041695856363  10.61710851443911  45.06225676190835  50.9603281560798  -8.348077972936583  -10.038363627190364  39.32984216313957  42.257432474356236  -45.85161336919354  19.65371514009039  120.000000
1.7669999999999988  0.000000  0.000000  0.000000  -50.472780692210506  10.251974028085463  43.58427441088174  50.60385293637139  -8.348094256478925  -10.60306168321203  39.94794491180563  40.66522985016308  -45.99023330852546  19.890761664530668  120.000000
1.7979999999999987  0.000000  0.000000  0.000000  -49.67617082311911  9.840580221006839  41.9340170815971  50.30221612418182  -8.348094259179385  -11.029875786551962  40.35441728703144  39.04290106772545  -45.87682633864149  20.084957233170016  120.000000
1.8289999999999988  0.000000  0.000000  0.000000  -48.899827605532344  9.394281519309365  40.0757429611073  50.035394522885824  -8.34809425941498  -11.298968827004252  40.52365373340811  37.43734140875923  -45.48820701423328  20.2161293101158  120.000000
1.8599999999999988  0.000000  0.000000  0.000000  -48.119765749843424  8.913366252481582  37.95021140739913  49.782018158539756  -8.287478854419026  -11.380093146640798  40.47551568799066  35.876663515383484  -44.832407417580285  20.26795216329167  120.000000
1.8909999999999987  0.000000  0.000000  0.000000  -47.3063417701996  8.383726880721026  35.48807273626234  49.525756615406294  -8.05384913878967  -11.24309954996063  40.26426126893015  34.36733237987753  -43.949881748319754  20.23225670274288  120.000000
1.9219999999999986  0.000000  0.000000  0.000000  -46.4445573987328  7.79458167636474  32.64826599417005  49.255539334838694  -7.557339802041972  -10.868187173575125  39.948734409594984  32.91162263089067  -42.909173266782105  20.106093664428574  120.000000
1.9529999999999987  0.000000  0.000000  0.000000  -45.545061396473486  7.146567045949113  29.43826420290514  48.964970778460795  -6.767453077593486  -10.248410276429503  39.57981159107313  31.51542039470618  -41.79487343716582  19.89067766352576  120.000000
1.9839999999999987  0.000000  0.000000  0.000000  -44.636869175079646  6.448194592863481  25.908929964695538  48.65270255418612  -5.6989739759696025  -9.389726248783168  39.20130130289353  30.18351403053589  -40.68842040750248  19.593511119211563  120.000000
2.014999999999999  0.000000  0.000000  0.000000  -43.753791255381906  5.714253194067365  22.144319217873797  48.32116796903204  -4.394152663247407  -8.311190160282766  38.850300960959146  28.91459795070802  -39.651734564017985  19.228260707723983  120.000000
2.0459999999999985  0.000000  0.000000  0.000000  -42.924572625521016  4.964595576468388  18.248635828702593  47.97618028483097  -2.909098180708791  -7.043302522285909  38.55767418267413  27.70041732643082  -38.72132111942924  18.812394235108716  120.000000
2.0769999999999986  0.000000  0.000000  0.000000  -42.16778930165527  4.221386900688301  14.333471897289535  47.626831379041995  -1.3038312192903616  -5.6260758704417855  38.34942595972556  26.527556019274645  -37.91169213838259  18.364371689455716  120.000000
2.1079999999999988  0.000000  0.000000  0.000000  -41.49072249357958  3.506230124547154  10.506463573125098  47.28430333609401  0.3634771191388538  -4.10629259374259  38.24782037394512  25.380990426262095  -37.22434689940615  17.901776848223044  120.000000
2.1389999999999985  0.000000  0.000000  0.000000  -40.89312031841914  2.8363976292278563  6.862588544624052  46.96153489529674  2.0401288962775226  -2.5347396904731316  38.27295452531136  24.24931870792089  -36.65744786797365  17.439760605842718  120.000000
2.1699999999999986  0.000000  0.000000  0.000000  -40.36970909696526  2.2244752067395996  3.4782343753241642  46.67020979421823  3.6798443174700535  -0.9625785942028311  38.44407251939089  23.12725989734434  -36.21151222612602  16.99085063812638  120.000000
2.2009999999999983  0.000000  0.000000  0.000000  -39.91061137277936  1.6802981003846464  0.40847613481180706  46.41719696588481  5.2426461876671375  0.5626700890929796  38.78044275107178  22.014526694796018  -35.89044823765604  16.565507542224854  120.000000
2.2319999999999984  0.000000  0.000000  0.000000  -39.50543680060468  1.2093866492279273  -2.3120554265642626  46.205190547494105  6.6962308388815055  1.9993383897416852  39.30036727193285  20.915381934533777  -35.69935812643702  16.1728827088157  120.000000
2.2629999999999986  0.000000  0.000000  0.000000  -39.14541976105538  0.8125429376701434  -4.667326646176104  46.03396905244581  8.016325223708613  3.313352263932756  40.01795743753039  19.83775629423651  -35.64259049022334  15.822315522701674  120.000000
2.2939999999999983  0.000000  0.000000  0.000000  -38.82246699251416  0.48789573231898353  -6.656858258119284  45.90097466348079  9.18522181781179  4.480427766149109  40.939556854801566  18.790609562096666  -35.722098232152504  15.523479323001299  120.000000
2.3249999999999984  0.000000  0.000000  0.000000  -38.53036822005479  0.23012777862102735  -8.29254885796533  45.80474655652322  10.192028746428427  5.486256570284249  42.060119158243026  17.78363773270947  -35.938193555420916  15.285156686517578  120.000000
2.3559999999999985  0.000000  0.000000  0.000000  -38.26582526137727  0.028987888330295312  -9.595727027043935  45.74707357933188  11.033313317410597  6.325126917362166  43.360982347912376  16.827661782525567  -36.291057069132926  15.114140040534316  120.000000
2.3869999999999982  0.000000  0.000000  0.000000  -38.02746087375616  -0.128817550561269  -10.594440001409975  45.73176177138867  11.711886951714545  6.999574724218768  44.81143649582039  15.932880396695007  -36.780741674217175  15.01348841381465  120.000000
2.4179999999999984  0.000000  0.000000  0.000000  -37.81390008817975  -0.2554681256890324  -11.321839990811732  45.76231388284468  12.234824742697908  7.520350418629849  46.37319078260611  15.106587396804889  -37.40575613138087  14.981250511073023  120.000000
2.4489999999999985  0.000000  0.000000  0.000000  -37.62359793687903  -0.3607266634536251  -11.81486258567544  45.84028793315358  12.614373568663174  7.904442849093691  48.00570408045852  14.351732576084581  -38.16067609959275  15.011448606996295  120.000000
2.479999999999998  0.000000  0.000000  0.000000  -37.45457310332963  -0.45233776815968463  -12.113452149473163  45.961675634352275  12.869614425379108  8.17303993602814  49.67249336151308  13.666349357995662  -39.03218155515616  15.096771092232236  120.000000
2.5109999999999983  0.000000  0.000000  0.000000  -37.30138561831075  -0.5343433366745307  -12.26138828792164  46.11540394471608  13.02571028858467  8.34998899903183  51.344910697632685  13.044845001559722  -39.99729956835829  15.230453969081527  120.000000
2.5419999999999985  0.000000  0.000000  0.000000  -37.15463550672957  -0.6061916738359892  -12.307821092948707  46.28204366445516  13.112725344193299  8.462554942019732  53.002944512598994  12.48010308324525  -41.025316536043945  15.40727139225513  120.000000
2.572999999999998  0.000000  0.000000  0.000000  -37.00257390651567  -0.6635243472934788  -12.308775242252961  46.43462624691851  13.164228039629945  8.541589474671547  54.63252590414807  11.96790782279402  -42.082474761603606  15.62325384632558  120.000000
2.6039999999999983  0.000000  0.000000  0.000000  -36.83479151508192  -0.7004436860596919  -12.306318664725676  46.55003860800847  13.206770518427446  8.609955410705737  56.22333378134381  11.504028516633864  -43.137901858973436  15.872454233503728  120.000000
2.634999999999998  0.000000  0.000000  0.000000  -36.646281225327215  -0.7125552698047845  -12.308008628746071  46.61940005957742  13.249740613292879  8.672701176318206  57.766778617995115  11.079121689232519  -44.16808567197157  16.14461676125319  120.000000
2.665999999999998  0.000000  0.000000  0.000000  -36.436394880438016  -0.6977119990253992  -12.30877520518003  46.642753682342445  13.293117933008206  8.727961377786768  59.253307485895505  10.687579523207793  -45.15968243934816  16.425669470970238  120.000000
2.6969999999999983  0.000000  0.000000  0.000000  -36.20727823110057  -0.6553543300119269  -12.308775037470769  46.621592354054535  13.335840106666815  8.777742460279065  60.67247099511993  10.330872470766288  -46.10766088037727  16.6995753185236  120.000000
